		<svg xmlns="http://www.w3.org/2000/svg" width="225.84" height="40.5" viewBox="0 0 225.84 40.5">
		  <defs>
		    <style>
		      .a {
		        fill: #fff;
		      }

		      .b {
		        fill: #ff0;
		      }
		    </style>
		  </defs>
		  <title>ZooLogo</title>
		  <g>
		    <path class="a" d="M15.12,8.76H.6V0h27V8.34L12.12,31.74H28.2V40.5H0V32.16Z"/>
		    <path class="a" d="M62.16,0A4.5,4.5,0,0,1,66.9,4.74v31a4.5,4.5,0,0,1-4.74,4.74H41.34a4.5,4.5,0,0,1-4.74-4.74v-31A4.5,4.5,0,0,1,41.34,0Zm-5.7,9.42a.67.67,0,0,0-.66-.66H47.58a.66.66,0,0,0-.54.66V31.2a.58.58,0,0,0,.54.54H55.8a.61.61,0,0,0,.66-.54Z"/>
		    <path class="a" d="M106.68,4.56V35.88a4.53,4.53,0,0,1-4.56,4.62H81.6A4.62,4.62,0,0,1,77,35.88V4.56A4.61,4.61,0,0,1,81.6,0h20.52A4.52,4.52,0,0,1,106.68,4.56Zm-11.1,27.3a.6.6,0,0,0,.66-.66v-22a.6.6,0,0,0-.66-.66h-7.5a.6.6,0,0,0-.66.66v22a.6.6,0,0,0,.66.66Z"/>
		    <path class="b" d="M116.64,3.6,127.5,0h9.42V31.32h10.92V40.5H115.32V31.32h11.16V8.94l-8.64,2Z"/>
		    <path class="b" d="M166.2,23.46a.6.6,0,0,0-.66.66v7.2h17.58V40.5h-28V19.14c0-2.34,2.34-3.48,4.62-3.48H172.5a.6.6,0,0,0,.66-.66V9.24a.6.6,0,0,0-.66-.66H156V0h23a5,5,0,0,1,4.62,4.62V18.9A5,5,0,0,1,179,23.46Z"/>
		    <path class="b" d="M194.64,3.6,205.5,0h9.42V31.32h10.92V40.5H193.32V31.32h11.16V8.94l-8.64,2Z"/>
		  </g>
		</svg>